<svg version="1.1" xmlns="http://www.w3.org/2000/svg" xmlns:xlink="http://www.w3.org/1999/xlink" width="110.72116" height="101.11197" viewBox="0,0,110.72116,101.11197"><g transform="translate(-186.97898,-77.37354)"><g data-paper-data="{&quot;isPaintingLayer&quot;:true}" fill-rule="nonzero" stroke-linecap="butt" stroke-linejoin="miter" stroke-miterlimit="10" stroke-dasharray="" stroke-dashoffset="0" style="mix-blend-mode: normal"><path d="M269.6965,92.2249c4.1886,17.2117 4.1415,41.3277 7.3922,61.9093c-4.4529,-2.1409 -8.2552,1.4572 -13.8603,0.924c0.6061,-11.3571 1.3352,-19.2186 -1.8481,-29.5686c-3.8014,0.511 -4.8566,3.7682 -4.6201,8.3162c-3.7136,6.7583 -7.9188,13.0259 -10.1642,21.2524c-6.1558,-7.3967 -7.4365,-19.6677 -15.7083,-24.9485c-1.9793,6.5578 0.7494,18.7733 1.848,27.7206c-5.6845,-0.4491 -9.705,2.5346 -14.7843,0.924c-0.9462,-9.6504 -1.3777,-23.6918 -3.6961,-33.2647c2.3812,-10.0117 -2.2925,-21.9704 0,-31.4166c2.5799,-1.837 7.3894,-1.2355 11.0883,-1.8481c5.8823,9.826 8.1184,23.2982 13.8603,33.2647c8.9962,-7.0207 9.3002,-22.7327 14.7843,-33.2647c4.5277,-2.602 9.6929,1.1153 15.7083,0z" fill="#ff9400" stroke="none" stroke-width="0.92402"/><path d="M296.70015,127.92953c0,27.36901 -24.33806,49.55598 -54.36058,49.55598c-30.02252,0 -54.36058,-22.18697 -54.36058,-49.55598c0,-27.36901 24.33806,-49.55598 54.36058,-49.55598c30.02252,0 54.36058,22.18697 54.36058,49.55598z" fill-opacity="0.48235" fill="#afff00" stroke="#000000" stroke-width="2"/><path d="M252.1401,88.5288c7.0845,0 14.168,0 21.2525,0c1.3897,21.7598 3.1176,44.8178 7.3921,64.6814c0,0.924 0,1.848 0,2.7721c-4.5286,-0.2163 -4.3151,4.3087 -5.5441,7.3921c-7.0724,-0.6043 -12.2312,0.705 -17.5564,1.8481c-2.748,-9.8381 -0.3326,-14.0932 -1.848,-24.0245c-3.6406,8.9879 -7.99,17.2662 -13.8603,24.0245c-5.6143,-2.0966 -3.2036,-17.111 -8.3162,-16.6324c1.4332,3.4946 0.8649,8.9916 3.6961,11.0882c-2.663,1.6891 -2.8903,1.4988 -6.4681,0.9241c-0.158,2.614 0.7946,6.3387 -1.8481,6.4681c-4.5914,-0.5017 -11.7285,-2.3202 -14.7843,0.924c-0.6163,0 -1.2317,0 -1.848,0c-2.0264,-13.9684 0.4121,-29.3219 -5.5441,-40.6568c2.5678,-7.3515 1.9783,-19.7029 -0.924,-26.7966c0,-0.924 0,-1.848 0,-2.7721c6.5069,1.2715 5.6078,-4.864 8.3161,-7.3921c5.3399,0.4112 9.4685,-0.3881 13.8603,-0.924c2.25,9.7622 7.6574,16.3671 10.1642,25.8725c4.3827,-6.1152 5.3834,-14.4184 6.4682,-21.2524c1.5403,0 3.0797,0 4.6201,0c0.8843,-1.8878 1.8877,-3.6564 2.772,-5.5442zM253.9882,92.2249c-5.4841,10.532 -5.7881,26.244 -14.7843,33.2647c-5.7419,-9.9665 -7.978,-23.4387 -13.8603,-33.2647c-3.6989,0.6126 -8.0427,0.5822 -11.0883,1.8481c-1.9543,9.2864 5.3593,21.8373 0,31.4166c4.001,8.0187 4.2773,23.6226 3.6961,33.2647c5.9562,0.7198 9.0998,-1.3731 14.7843,-0.924c-1.0986,-8.9473 -3.8273,-21.1628 -1.848,-27.7206c8.2718,5.2808 9.5525,17.5518 15.7083,24.9485c2.2454,-8.2265 6.4506,-14.4941 10.1642,-21.2524c-0.2365,-4.548 0.8187,-7.8052 4.6201,-8.3162c3.1833,10.35 2.4542,18.2115 1.8481,29.5686c5.6051,0.5332 9.4074,-3.0649 13.8603,-0.924c-3.2507,-20.5816 -3.2036,-44.6976 -7.3922,-61.9093c-6.0154,1.1153 -11.1806,-2.602 -15.7083,0z" fill="#000000" stroke="none" stroke-width="0.92402"/></g></g></svg>