<svg version="1.1" xmlns="http://www.w3.org/2000/svg" xmlns:xlink="http://www.w3.org/1999/xlink" width="95.5693" height="94.8065" viewBox="0,0,95.5693,94.8065"><g transform="translate(-193.44512,-76.59558)"><g data-paper-data="{&quot;isPaintingLayer&quot;:true}" fill-rule="nonzero" stroke-linecap="butt" stroke-linejoin="miter" stroke-miterlimit="10" stroke-dasharray="" stroke-dashoffset="0" style="mix-blend-mode: normal"><path d="M260.9696,96.5791c-2.4112,0.6088 -4.5909,1.4471 -8.0506,1.0063c1.4984,19.9213 7.5384,46.27 -5.0317,58.3671c-14.154,1.742 -20.5261,-4.297 -25.1582,-12.0759c1.6967,-1.6575 4.5224,-2.1868 6.038,-4.0254c22.2086,22.1181 24.7144,-22.6846 17.1076,-41.2594c-5.0317,0 -10.0633,0 -15.095,0c0.5344,-2.1959 2.4343,-6.509 -1.0063,-7.0444c6.9578,-4.1118 20.2504,-1.8888 29.1835,-4.0253c4.0807,-0.3904 1.109,6.2715 2.0127,9.057z" fill="#ff9400" stroke="none" stroke-width="1.00633"/><path d="M288.01443,123.99884c0,25.62781 -20.9462,46.40325 -46.78465,46.40325c-25.83845,0 -46.78465,-20.77544 -46.78465,-46.40325c0,-25.62781 20.9462,-46.40325 46.78465,-46.40325c25.83845,0 46.78465,20.77544 46.78465,46.40325z" fill-opacity="0.70196" fill="#e67f7f" stroke="#000000" stroke-width="2"/><path d="M257.9506,84.5031c2.3478,0 4.6966,0 7.0443,0c0,5.0317 0,10.0633 0,15.095c-1.9029,3.4648 -4.5858,6.1487 -8.0506,8.0506c3.8653,21.7156 2.549,48.3139 -13.0823,56.3544c-2.0126,0 -4.0253,0 -6.038,0c-12.0175,-0.7295 -17.3239,-8.1693 -22.1392,-16.1012c0,-1.3415 0,-2.6839 0,-4.0253c6.5643,-1.4864 7.9913,-8.11 15.0949,-9.057c1.9503,2.7463 2.1848,7.2073 7.0443,7.0443c7.7196,-6.9739 4.7419,-24.9399 2.0127,-36.2278c-5.3054,-0.5716 -12.7059,0.8664 -15.0949,0c0.808,-6.5019 -2.3367,-13.2323 3.0189,-18.114c10.3461,-0.7235 21.5194,-0.6199 30.1899,-3.019zM258.9569,87.5221c-8.9331,2.1365 -22.2257,-0.0865 -29.1835,4.0253c3.4406,0.5354 1.5407,4.8485 1.0063,7.0444c5.0317,0 10.0633,0 15.095,0c7.6068,18.5748 5.101,63.3775 -17.1076,41.2594c-1.5156,1.8386 -4.3413,2.3679 -6.038,4.0254c4.6321,7.7789 11.0042,13.8179 25.1582,12.0759c12.5701,-12.0971 6.5301,-38.4458 5.0317,-58.3671c3.4597,0.4408 5.6394,-0.3975 8.0506,-1.0063c-0.9037,-2.7855 2.068,-9.4474 -2.0127,-9.057z" fill="#000000" stroke="none" stroke-width="1.00633"/></g></g></svg>